<svg width="337" height="298" viewBox="0 0 337 298" fill="none" xmlns="http://www.w3.org/2000/svg">
<g clip-path="url(#clip0_37_361)">
<path d="M168.5 297.98C250.768 297.98 317.459 231.279 317.459 149C317.459 66.7212 250.768 0.020874 168.5 0.020874C86.2322 0.020874 19.5409 66.7212 19.5409 149C19.5409 231.279 86.2322 297.98 168.5 297.98Z" fill="white"/>
<path opacity="0.1" d="M168.5 297.98C250.768 297.98 317.459 231.279 317.459 149C317.459 66.7212 250.768 0.020874 168.5 0.020874C86.2322 0.020874 19.5409 66.7212 19.5409 149C19.5409 231.279 86.2322 297.98 168.5 297.98Z" fill="#6C63FF"/>
<path d="M71.6908 199.601L0.453735 199.385L0.74684 102.598L50.0056 102.747L71.9172 124.795L71.6908 199.601Z" fill="white"/>
<path opacity="0.3" d="M50.0055 102.747L49.9388 124.728L71.9171 124.795L50.0055 102.747Z" fill="#6C63FF"/>
<path d="M72.3654 124.768C72.3627 124.728 72.355 124.689 72.3423 124.651C72.3373 124.637 72.3337 124.623 72.3273 124.608C72.3061 124.559 72.2762 124.514 72.2389 124.475L50.3273 102.427C50.2887 102.389 50.2437 102.358 50.1943 102.336C50.1805 102.33 50.1665 102.325 50.1521 102.321C50.1141 102.308 50.0744 102.3 50.0342 102.297C50.0246 102.297 50.016 102.291 50.0065 102.291L0.748187 102.144C0.627853 102.144 0.512447 102.192 0.427357 102.277C0.342268 102.362 0.294465 102.477 0.294465 102.598L0 199.384C0 199.504 0.0478027 199.62 0.132892 199.705C0.217981 199.79 0.333387 199.838 0.453722 199.838L71.688 200.055C71.8084 200.055 71.9238 200.007 72.0089 199.922C72.094 199.837 72.1418 199.722 72.1418 199.601L72.3686 124.795C72.3709 124.786 72.3659 124.778 72.3654 124.768ZM50.4539 103.844L60.5719 114.021L70.8232 124.337L50.394 124.274L50.4539 103.844ZM0.907444 198.933L1.19783 103.053L49.5487 103.199L49.4838 124.727C49.4838 124.847 49.5316 124.963 49.6167 125.048C49.7018 125.133 49.8172 125.181 49.9375 125.181L71.4621 125.246L71.2384 199.145L0.907444 198.933Z" fill="#262626"/>
<path d="M216.917 195.728L119.774 195.434L120.174 63.448L187.346 63.6517L217.226 93.7176L216.917 195.728Z" fill="white"/>
<path opacity="0.3" d="M187.346 63.6519L187.255 93.627L217.226 93.7177L187.346 63.6519Z" fill="#6C63FF"/>
<path d="M217.674 93.6904C217.672 93.6509 217.664 93.6119 217.652 93.5743C217.647 93.5593 217.643 93.5452 217.636 93.5289C217.615 93.4797 217.585 93.4346 217.548 93.3959L187.668 63.3301C187.629 63.2921 187.584 63.2614 187.535 63.2393C187.521 63.233 187.507 63.2293 187.493 63.2243C187.455 63.2112 187.415 63.2031 187.375 63.2003C187.365 63.2003 187.357 63.1948 187.347 63.1948L120.175 62.9911C120.055 62.9911 119.939 63.0389 119.854 63.124C119.769 63.2091 119.721 63.3245 119.721 63.4449L119.322 195.43C119.322 195.551 119.369 195.666 119.454 195.751C119.54 195.836 119.655 195.884 119.775 195.884L216.917 196.179C217.037 196.179 217.153 196.131 217.238 196.046C217.323 195.961 217.371 195.845 217.371 195.725L217.68 93.7145C217.68 93.709 217.675 93.7004 217.674 93.6904ZM187.795 64.7486L216.131 93.2607L187.709 93.1745L187.795 64.7486ZM120.229 194.981L120.626 63.9032L186.891 64.1042L186.8 93.6256C186.8 93.7459 186.848 93.8613 186.933 93.9464C187.018 94.0315 187.133 94.0793 187.254 94.0793L216.771 94.1701L216.465 195.273L120.229 194.981Z" fill="#262626"/>
<path d="M336.32 199.601L265.083 199.385L265.376 102.598L314.635 102.747L336.546 124.795L336.32 199.601Z" fill="white"/>
<path opacity="0.3" d="M314.635 102.747L314.568 124.728L336.546 124.795L314.635 102.747Z" fill="#6C63FF"/>
<path d="M336.995 124.768C336.992 124.728 336.985 124.689 336.972 124.651C336.967 124.637 336.963 124.623 336.956 124.608C336.935 124.559 336.905 124.514 336.868 124.475L314.956 102.427C314.918 102.389 314.873 102.358 314.824 102.336C314.81 102.33 314.796 102.326 314.781 102.321C314.743 102.308 314.704 102.3 314.664 102.297C314.654 102.297 314.646 102.291 314.636 102.291L265.377 102.142C265.257 102.142 265.142 102.19 265.056 102.275C264.971 102.36 264.924 102.476 264.924 102.596L264.63 199.383C264.63 199.504 264.678 199.619 264.763 199.704C264.848 199.789 264.964 199.837 265.084 199.837L336.321 200.053C336.442 200.053 336.557 200.005 336.642 199.92C336.727 199.835 336.775 199.72 336.775 199.599L337.002 124.793C337 124.786 336.995 124.778 336.995 124.768ZM315.085 103.844L325.199 114.021L335.452 124.337L315.023 124.274L315.085 103.844ZM265.538 198.933L265.829 103.053L314.18 103.199L314.115 124.727C314.115 124.847 314.163 124.963 314.248 125.048C314.333 125.133 314.448 125.181 314.568 125.181L336.093 125.246L335.869 199.145L265.538 198.933Z" fill="#262626"/>
<path d="M144.236 140.363C147.992 140.363 151.037 137.318 151.037 133.562C151.037 129.806 147.992 126.761 144.236 126.761C140.481 126.761 137.436 129.806 137.436 133.562C137.436 137.318 140.481 140.363 144.236 140.363Z" fill="#292A2E"/>
<path d="M190.866 140.363C194.622 140.363 197.667 137.318 197.667 133.562C197.667 129.806 194.622 126.761 190.866 126.761C187.11 126.761 184.066 129.806 184.066 133.562C184.066 137.318 187.11 140.363 190.866 140.363Z" fill="#292A2E"/>
<path d="M176.668 152.371H158.434C158.314 152.371 158.198 152.324 158.113 152.238C158.028 152.153 157.98 152.038 157.98 151.918C157.98 151.797 158.028 151.682 158.113 151.597C158.198 151.512 158.314 151.464 158.434 151.464H176.668C176.789 151.464 176.904 151.512 176.989 151.597C177.074 151.682 177.122 151.797 177.122 151.918C177.122 152.038 177.074 152.153 176.989 152.238C176.904 152.324 176.789 152.371 176.668 152.371Z" fill="#262626"/>
<path d="M137.221 153.017C140.572 153.017 143.288 151.587 143.288 149.824C143.288 148.06 140.572 146.63 137.221 146.63C133.871 146.63 131.155 148.06 131.155 149.824C131.155 151.587 133.871 153.017 137.221 153.017Z" fill="white"/>
<path d="M197.881 153.017C201.232 153.017 203.947 151.587 203.947 149.824C203.947 148.06 201.232 146.63 197.881 146.63C194.531 146.63 191.815 148.06 191.815 149.824C191.815 151.587 194.531 153.017 197.881 153.017Z" fill="white"/>
<g opacity="0.4">
<path d="M137.221 153.017C140.572 153.017 143.288 151.587 143.288 149.824C143.288 148.06 140.572 146.63 137.221 146.63C133.871 146.63 131.155 148.06 131.155 149.824C131.155 151.587 133.871 153.017 137.221 153.017Z" fill="#6C63FF"/>
<path d="M197.881 153.017C201.232 153.017 203.947 151.587 203.947 149.824C203.947 148.06 201.232 146.63 197.881 146.63C194.531 146.63 191.815 148.06 191.815 149.824C191.815 151.587 194.531 153.017 197.881 153.017Z" fill="#6C63FF"/>
</g>
<path d="M217.372 94.7994C205.793 81.5033 189.407 73.3518 171.819 72.1381C154.231 70.9243 136.881 76.7476 123.585 88.3271C101.373 107.675 94.547 139.842 106.989 166.559C109.488 171.913 112.691 176.908 116.514 181.412L117.331 182.38L56.4452 247.003C55.3318 248.202 54.7377 249.793 54.7923 251.429C54.8469 253.064 55.5459 254.612 56.7368 255.734C57.9277 256.856 59.5139 257.462 61.1495 257.419C62.7851 257.376 64.3375 256.688 65.468 255.505L126.339 190.891L127.356 191.653C140.491 201.507 156.809 206.15 173.164 204.688C189.52 203.225 204.755 195.761 215.935 183.732C227.114 171.704 233.447 155.963 233.713 139.542C233.979 123.121 228.159 107.184 217.374 94.7994H217.372ZM221.189 142.187C220.247 155.84 214.165 168.629 204.169 177.975C194.173 187.321 181.006 192.53 167.322 192.552C166.059 192.552 164.791 192.507 163.519 192.416C154.637 191.813 146.04 189.027 138.493 184.305C130.945 179.584 124.678 173.072 120.249 165.348C115.82 157.624 113.365 148.927 113.103 140.026C112.84 131.126 114.777 122.299 118.742 114.327C122.707 106.355 128.578 99.4847 135.834 94.3256C143.09 89.1664 151.507 85.8778 160.338 84.7513C169.17 83.6248 178.142 84.6953 186.461 87.8677C194.779 91.0402 202.186 96.2167 208.026 102.938C212.703 108.286 216.275 114.508 218.535 121.245C220.794 127.982 221.696 135.1 221.189 142.187Z" fill="#6C63FF"/>
</g>
<defs>
<clipPath id="clip0_37_361">
<rect width="337" height="298" fill="white"/>
</clipPath>
</defs>
</svg>
